<svg data-v-fde0c5aa="" xmlns="http://www.w3.org/2000/svg" viewBox="0 0 300 300" class="iconAbove"><!----><defs data-v-fde0c5aa=""><!----></defs><rect data-v-fde0c5aa="" fill="transparent" x="0" y="0" width="300px" height="300px" class="logo-background-square"></rect><defs data-v-fde0c5aa=""><!----></defs><g data-v-fde0c5aa="" id="b54b4456-2321-47fe-bed1-0ab19a5fc904" fill="#000000" transform="matrix(2.2964140363607157,0,0,2.2964140363607157,17.818406555955765,165.83183153917003)"><path d="M0.95 12.29L0.95 4.93L2.11 4.93L2.25 5.91L2.35 5.91Q2.74 5.35 3.37 5.05Q3.99 4.76 4.77 4.76L4.77 4.76Q7.11 4.76 7.11 7.29L7.11 7.29L7.11 12.29L5.67 12.29L5.67 7.48Q5.67 6.65 5.30 6.32Q4.93 5.99 4.21 5.99L4.21 5.99Q3.72 5.99 3.30 6.24Q2.88 6.48 2.64 6.93Q2.39 7.38 2.39 7.97L2.39 7.97L2.39 12.29L0.95 12.29ZM11.90 12.46Q10.21 12.46 9.37 11.68Q8.53 10.91 8.53 9.66L8.53 9.66Q8.53 7.98 10.09 7.36L10.09 7.36Q9.45 7.03 9.11 6.46Q8.78 5.89 8.78 5.19L8.78 5.19Q8.78 4.44 9.13 3.84Q9.49 3.23 10.20 2.88Q10.91 2.52 11.90 2.52L11.90 2.52Q12.91 2.52 13.61 2.88Q14.31 3.23 14.66 3.84Q15.02 4.44 15.02 5.19L15.02 5.19Q15.02 5.89 14.69 6.46Q14.35 7.03 13.71 7.36L13.71 7.36Q15.29 7.98 15.29 9.66L15.29 9.66Q15.29 10.91 14.45 11.68Q13.61 12.46 11.90 12.46L11.90 12.46ZM11.90 6.79Q12.68 6.79 13.13 6.38Q13.58 5.98 13.58 5.25L13.58 5.25Q13.58 4.52 13.13 4.11Q12.68 3.70 11.90 3.70L11.90 3.70Q11.13 3.70 10.68 4.11Q10.23 4.52 10.23 5.25L10.23 5.25Q10.23 5.98 10.68 6.38Q11.12 6.79 11.90 6.79L11.90 6.79ZM11.90 11.28Q12.82 11.28 13.31 10.84Q13.80 10.40 13.80 9.62L13.80 9.62Q13.80 8.85 13.31 8.41Q12.82 7.98 11.90 7.98L11.90 7.98Q10.99 7.98 10.51 8.41Q10.02 8.85 10.02 9.62L10.02 9.62Q10.02 10.40 10.51 10.84Q10.99 11.28 11.90 11.28L11.90 11.28ZM16.76 12.29L16.76 4.93L17.92 4.93L18.06 5.91L18.16 5.91Q18.55 5.35 19.17 5.05Q19.80 4.76 20.58 4.76L20.58 4.76Q22.92 4.76 22.92 7.29L22.92 7.29L22.92 12.29L21.48 12.29L21.48 7.48Q21.48 6.65 21.11 6.32Q20.73 5.99 20.02 5.99L20.02 5.99Q19.53 5.99 19.11 6.24Q18.69 6.48 18.45 6.93Q18.20 7.38 18.20 7.97L18.20 7.97L18.20 12.29L16.76 12.29ZM27.10 12.29L30.84 2.69L32.80 2.69L36.53 12.29L34.87 12.29L33.99 9.95L29.57 9.95L28.70 12.29L27.10 12.29ZM30.06 8.62L33.49 8.62L32.44 5.81L31.81 4.02L31.74 4.02L31.12 5.78L30.06 8.62ZM37.79 12.29L37.79 2.69L39.34 2.69L39.34 12.29L37.79 12.29ZM49.55 8.54L49.55 7.22L54.33 7.22L54.33 12.29L53.19 12.29L53.06 11.23Q51.91 12.46 49.76 12.46L49.76 12.46Q47.43 12.46 46.23 11.23Q45.02 10.00 45.02 7.49L45.02 7.49Q45.02 5.00 46.27 3.76Q47.52 2.52 49.90 2.52L49.90 2.52Q51.18 2.52 52.19 2.90Q53.19 3.29 53.76 4.07Q54.33 4.84 54.33 5.96L54.33 5.96L52.75 5.96Q52.75 4.93 51.98 4.38Q51.20 3.84 49.92 3.84L49.92 3.84Q48.26 3.84 47.45 4.70Q46.63 5.56 46.63 7.42L46.63 7.42L46.63 7.57Q46.63 9.45 47.42 10.30Q48.20 11.14 49.80 11.14L49.80 11.14Q51.27 11.14 52.03 10.51Q52.79 9.87 52.79 8.62L52.79 8.62L52.79 8.54L49.55 8.54ZM59.33 12.46Q57.55 12.46 56.69 11.52Q55.82 10.58 55.82 8.61L55.82 8.61Q55.82 6.64 56.69 5.70Q57.55 4.76 59.33 4.76L59.33 4.76Q60.94 4.76 61.74 5.63Q62.54 6.51 62.54 8.41L62.54 8.41L62.54 8.97L57.30 8.97Q57.36 10.16 57.84 10.73Q58.32 11.30 59.35 11.30L59.35 11.30Q60.14 11.30 60.63 10.92Q61.12 10.54 61.12 9.76L61.12 9.76L62.54 9.76Q62.54 11.07 61.65 11.77Q60.76 12.46 59.33 12.46L59.33 12.46ZM57.33 7.88L61.04 7.88Q61.04 5.92 59.33 5.92L59.33 5.92Q58.38 5.92 57.90 6.39Q57.43 6.86 57.33 7.88L57.33 7.88ZM64.02 12.29L64.02 4.93L65.18 4.93L65.32 5.91L65.42 5.91Q65.81 5.35 66.44 5.05Q67.06 4.76 67.84 4.76L67.84 4.76Q70.18 4.76 70.18 7.29L70.18 7.29L70.18 12.29L68.74 12.29L68.74 7.48Q68.74 6.65 68.37 6.32Q68.00 5.99 67.28 5.99L67.28 5.99Q66.79 5.99 66.37 6.24Q65.95 6.48 65.71 6.93Q65.46 7.38 65.46 7.97L65.46 7.97L65.46 12.29L64.02 12.29ZM75.14 12.46Q73.36 12.46 72.49 11.52Q71.62 10.58 71.62 8.61L71.62 8.61Q71.62 6.64 72.49 5.70Q73.36 4.76 75.14 4.76L75.14 4.76Q76.75 4.76 77.55 5.63Q78.34 6.51 78.34 8.41L78.34 8.41L78.34 8.97L73.11 8.97Q73.16 10.16 73.65 10.73Q74.13 11.30 75.15 11.30L75.15 11.30Q75.95 11.30 76.44 10.92Q76.93 10.54 76.93 9.76L76.93 9.76L78.34 9.76Q78.34 11.07 77.45 11.77Q76.57 12.46 75.14 12.46L75.14 12.46ZM73.14 7.88L76.85 7.88Q76.85 5.92 75.14 5.92L75.14 5.92Q74.19 5.92 73.71 6.39Q73.23 6.86 73.14 7.88L73.14 7.88ZM79.83 12.29L79.83 4.93L80.99 4.93L81.13 6.06L81.21 6.06Q81.72 4.76 82.91 4.76L82.91 4.76Q83.16 4.76 83.35 4.81Q83.54 4.86 83.59 4.87L83.59 4.87L83.59 6.24L83.08 6.24Q82.25 6.24 81.76 6.72Q81.27 7.20 81.27 8.18L81.27 8.18L81.27 12.29L79.83 12.29ZM86.63 12.46Q85.72 12.46 84.99 12.01Q84.25 11.56 84.25 10.39L84.25 10.39Q84.25 8.97 85.48 8.43Q86.72 7.88 89.01 7.88L89.01 7.88L89.01 7.15Q89.01 6.55 88.70 6.24Q88.38 5.92 87.53 5.92L87.53 5.92Q86.70 5.92 86.36 6.22Q86.02 6.51 86.02 6.93L86.02 6.93L86.02 7.11L84.62 7.11Q84.60 7.03 84.60 6.80L84.60 6.80Q84.60 5.84 85.41 5.30Q86.23 4.76 87.58 4.76L87.58 4.76Q89.01 4.76 89.73 5.35Q90.45 5.94 90.45 7.01L90.45 7.01L90.45 10.78Q90.45 11.03 90.59 11.15Q90.73 11.27 90.94 11.27L90.94 11.27L91.45 11.27L91.45 12.24Q91.08 12.42 90.45 12.42L90.45 12.42Q89.95 12.42 89.61 12.14Q89.26 11.87 89.15 11.40L89.15 11.40L89.05 11.40Q88.66 11.90 88.05 12.18Q87.44 12.46 86.63 12.46L86.63 12.46ZM87.05 11.28Q87.88 11.28 88.45 10.79Q89.01 10.29 89.01 9.42L89.01 9.42L89.01 8.97Q87.42 8.97 86.58 9.25Q85.74 9.52 85.74 10.28L85.74 10.28Q85.74 10.79 86.07 11.04Q86.39 11.28 87.05 11.28L87.05 11.28ZM94.28 12.45Q93.44 12.45 93.06 11.96Q92.68 11.48 92.68 10.77L92.68 10.77L92.68 6.12L91.78 6.12L91.78 4.93L92.69 4.93L92.97 2.87L94.12 2.87L94.12 4.93L95.37 4.93L95.37 6.12L94.12 6.12L94.12 10.63Q94.12 11.27 94.72 11.27L94.72 11.27L95.37 11.27L95.37 12.25Q95.19 12.33 94.87 12.39Q94.56 12.45 94.28 12.45L94.28 12.45ZM96.64 3.65L96.64 2.17L98.08 2.17L98.08 3.65L96.64 3.65ZM96.64 12.29L96.64 4.93L98.08 4.93L98.08 12.29L96.64 12.29ZM103.04 12.46Q101.29 12.46 100.42 11.52Q99.54 10.57 99.54 8.61L99.54 8.61Q99.54 6.65 100.42 5.71Q101.29 4.76 103.04 4.76L103.04 4.76Q104.79 4.76 105.67 5.71Q106.55 6.65 106.55 8.61L106.55 8.61Q106.55 10.57 105.67 11.52Q104.79 12.46 103.04 12.46L103.04 12.46ZM103.04 11.27Q104.10 11.27 104.59 10.65Q105.07 10.02 105.07 8.68L105.07 8.68L105.07 8.54Q105.07 7.20 104.59 6.57Q104.10 5.95 103.04 5.95L103.04 5.95Q101.99 5.95 101.51 6.57Q101.02 7.20 101.02 8.54L101.02 8.54L101.02 8.68Q101.02 10.02 101.51 10.65Q101.99 11.27 103.04 11.27L103.04 11.27ZM108.01 12.29L108.01 4.93L109.17 4.93L109.31 5.91L109.41 5.91Q109.80 5.35 110.43 5.05Q111.05 4.76 111.83 4.76L111.83 4.76Q114.17 4.76 114.17 7.29L114.17 7.29L114.17 12.29L112.73 12.29L112.73 7.48Q112.73 6.65 112.36 6.32Q111.99 5.99 111.27 5.99L111.27 5.99Q110.78 5.99 110.36 6.24Q109.94 6.48 109.70 6.93Q109.45 7.38 109.45 7.97L109.45 7.97L109.45 12.29L108.01 12.29Z"></path></g><defs data-v-fde0c5aa=""><linearGradient data-v-fde0c5aa="" gradientTransform="rotate(25)" id="193bbbfb-2b58-4229-81ef-ce7344ac53fe" x1="0%" y1="0%" x2="100%" y2="0%"><stop data-v-fde0c5aa="" offset="0%" stop-color="#563F33" stop-opacity="1"></stop><stop data-v-fde0c5aa="" offset="100%" stop-color="#A3A1A1" stop-opacity="1"></stop></linearGradient></defs><g data-v-fde0c5aa="" id="0dfdad27-dc77-4c99-ad25-aec320f92bd6" stroke="none" fill="url(#193bbbfb-2b58-4229-81ef-ce7344ac53fe)" transform="matrix(1.4768812716594075,0,0,1.4768812716594075,126.36989965344948,105.55484948017423)"><path d="M15.965 16.258l.707-.707 10.39 10.39-.707.707z"></path><path d="M4.935 26.357L26.018 5.274l.707.707L5.642 27.065z"></path><path d="M31 1v4.194h-4.194V1H31m1-1h-6.194v6.194H32V0zM31 26.806V31h-4.194v-4.194H31m1-1h-6.194V32H32v-6.194zM5.194 26.806V31H1v-4.194h4.194m1-1H0V32h6.194v-6.194z"></path></g><!----></svg>