<svg width="1363" height="163" viewBox="0 0 1363 163" fill="none" xmlns="http://www.w3.org/2000/svg">
<path d="M0 15C0 6.71573 6.71573 0 15 0H37V163H15C6.71573 163 0 156.284 0 148V15Z" fill="#424242"/>
<rect width="1097" height="163" transform="translate(37)" fill="#F0F0F0"/>
<path d="M98.0391 43.9375V61H94.5234V43.9375H98.0391ZM104.836 51.2266V53.9688H97.0781V51.2266H104.836ZM105.656 43.9375V46.6914H97.0781V43.9375H105.656ZM111.047 43V61H107.66V43H111.047ZM113.297 54.7891V54.543C113.297 53.6133 113.43 52.7578 113.695 51.9766C113.961 51.1875 114.348 50.5039 114.855 49.9258C115.363 49.3477 115.988 48.8984 116.73 48.5781C117.473 48.25 118.324 48.0859 119.285 48.0859C120.246 48.0859 121.102 48.25 121.852 48.5781C122.602 48.8984 123.23 49.3477 123.738 49.9258C124.254 50.5039 124.645 51.1875 124.91 51.9766C125.176 52.7578 125.309 53.6133 125.309 54.543V54.7891C125.309 55.7109 125.176 56.5664 124.91 57.3555C124.645 58.1367 124.254 58.8203 123.738 59.4062C123.23 59.9844 122.605 60.4336 121.863 60.7539C121.121 61.0742 120.27 61.2344 119.309 61.2344C118.348 61.2344 117.492 61.0742 116.742 60.7539C116 60.4336 115.371 59.9844 114.855 59.4062C114.348 58.8203 113.961 58.1367 113.695 57.3555C113.43 56.5664 113.297 55.7109 113.297 54.7891ZM116.672 54.543V54.7891C116.672 55.3203 116.719 55.8164 116.812 56.2773C116.906 56.7383 117.055 57.1445 117.258 57.4961C117.469 57.8398 117.742 58.1094 118.078 58.3047C118.414 58.5 118.824 58.5977 119.309 58.5977C119.777 58.5977 120.18 58.5 120.516 58.3047C120.852 58.1094 121.121 57.8398 121.324 57.4961C121.527 57.1445 121.676 56.7383 121.77 56.2773C121.871 55.8164 121.922 55.3203 121.922 54.7891V54.543C121.922 54.0273 121.871 53.543 121.77 53.0898C121.676 52.6289 121.523 52.2227 121.312 51.8711C121.109 51.5117 120.84 51.2305 120.504 51.0273C120.168 50.8242 119.762 50.7227 119.285 50.7227C118.809 50.7227 118.402 50.8242 118.066 51.0273C117.738 51.2305 117.469 51.5117 117.258 51.8711C117.055 52.2227 116.906 52.6289 116.812 53.0898C116.719 53.543 116.672 54.0273 116.672 54.543ZM131.004 57.7188L133.641 48.3203H135.785L135.094 52.0117L132.457 61H130.664L131.004 57.7188ZM129.668 48.3203L131.555 57.707L131.73 61H129.621L126.41 48.3203H129.668ZM138.199 57.5547L140.039 48.3203H143.309L140.098 61H138L138.199 57.5547ZM136.078 48.3203L138.703 57.6484L139.066 61H137.262L134.625 52.0234L133.957 48.3203H136.078ZM148.383 50.7578V65.875H145.008V48.3203H148.137L148.383 50.7578ZM156.41 54.5195V54.7656C156.41 55.6875 156.301 56.543 156.082 57.332C155.871 58.1211 155.559 58.8086 155.145 59.3945C154.73 59.9727 154.215 60.4258 153.598 60.7539C152.988 61.0742 152.285 61.2344 151.488 61.2344C150.715 61.2344 150.043 61.0781 149.473 60.7656C148.902 60.4531 148.422 60.0156 148.031 59.4531C147.648 58.8828 147.34 58.2227 147.105 57.4727C146.871 56.7227 146.691 55.918 146.566 55.0586V54.4141C146.691 53.4922 146.871 52.6484 147.105 51.8828C147.34 51.1094 147.648 50.4414 148.031 49.8789C148.422 49.3086 148.898 48.8672 149.461 48.5547C150.031 48.2422 150.699 48.0859 151.465 48.0859C152.27 48.0859 152.977 48.2383 153.586 48.543C154.203 48.8477 154.719 49.2852 155.133 49.8555C155.555 50.4258 155.871 51.1055 156.082 51.8945C156.301 52.6836 156.41 53.5586 156.41 54.5195ZM153.023 54.7656V54.5195C153.023 53.9805 152.977 53.4844 152.883 53.0312C152.797 52.5703 152.656 52.168 152.461 51.8242C152.273 51.4805 152.023 51.2148 151.711 51.0273C151.406 50.832 151.035 50.7344 150.598 50.7344C150.137 50.7344 149.742 50.8086 149.414 50.957C149.094 51.1055 148.832 51.3203 148.629 51.6016C148.426 51.8828 148.273 52.2188 148.172 52.6094C148.07 53 148.008 53.4414 147.984 53.9336V55.5625C148.023 56.1406 148.133 56.6602 148.312 57.1211C148.492 57.5742 148.77 57.9336 149.145 58.1992C149.52 58.4648 150.012 58.5977 150.621 58.5977C151.066 58.5977 151.441 58.5 151.746 58.3047C152.051 58.1016 152.297 57.8242 152.484 57.4727C152.68 57.1211 152.816 56.7148 152.895 56.2539C152.98 55.793 153.023 55.2969 153.023 54.7656ZM162.07 48.3203V61H158.684V48.3203H162.07ZM158.473 45.0156C158.473 44.5234 158.645 44.1172 158.988 43.7969C159.332 43.4766 159.793 43.3164 160.371 43.3164C160.941 43.3164 161.398 43.4766 161.742 43.7969C162.094 44.1172 162.27 44.5234 162.27 45.0156C162.27 45.5078 162.094 45.9141 161.742 46.2344C161.398 46.5547 160.941 46.7148 160.371 46.7148C159.793 46.7148 159.332 46.5547 158.988 46.2344C158.645 45.9141 158.473 45.5078 158.473 45.0156ZM168.422 43V61H165.035V43H168.422ZM170.672 54.7891V54.543C170.672 53.6133 170.805 52.7578 171.07 51.9766C171.336 51.1875 171.723 50.5039 172.23 49.9258C172.738 49.3477 173.363 48.8984 174.105 48.5781C174.848 48.25 175.699 48.0859 176.66 48.0859C177.621 48.0859 178.477 48.25 179.227 48.5781C179.977 48.8984 180.605 49.3477 181.113 49.9258C181.629 50.5039 182.02 51.1875 182.285 51.9766C182.551 52.7578 182.684 53.6133 182.684 54.543V54.7891C182.684 55.7109 182.551 56.5664 182.285 57.3555C182.02 58.1367 181.629 58.8203 181.113 59.4062C180.605 59.9844 179.98 60.4336 179.238 60.7539C178.496 61.0742 177.645 61.2344 176.684 61.2344C175.723 61.2344 174.867 61.0742 174.117 60.7539C173.375 60.4336 172.746 59.9844 172.23 59.4062C171.723 58.8203 171.336 58.1367 171.07 57.3555C170.805 56.5664 170.672 55.7109 170.672 54.7891ZM174.047 54.543V54.7891C174.047 55.3203 174.094 55.8164 174.188 56.2773C174.281 56.7383 174.43 57.1445 174.633 57.4961C174.844 57.8398 175.117 58.1094 175.453 58.3047C175.789 58.5 176.199 58.5977 176.684 58.5977C177.152 58.5977 177.555 58.5 177.891 58.3047C178.227 58.1094 178.496 57.8398 178.699 57.4961C178.902 57.1445 179.051 56.7383 179.145 56.2773C179.246 55.8164 179.297 55.3203 179.297 54.7891V54.543C179.297 54.0273 179.246 53.543 179.145 53.0898C179.051 52.6289 178.898 52.2227 178.688 51.8711C178.484 51.5117 178.215 51.2305 177.879 51.0273C177.543 50.8242 177.137 50.7227 176.66 50.7227C176.184 50.7227 175.777 50.8242 175.441 51.0273C175.113 51.2305 174.844 51.5117 174.633 51.8711C174.43 52.2227 174.281 52.6289 174.188 53.0898C174.094 53.543 174.047 54.0273 174.047 54.543ZM190.969 48.3203V50.7109H183.586V48.3203H190.969ZM185.414 45.1914H188.789V57.1797C188.789 57.5469 188.836 57.8281 188.93 58.0234C189.031 58.2188 189.18 58.3555 189.375 58.4336C189.57 58.5039 189.816 58.5391 190.113 58.5391C190.324 58.5391 190.512 58.5312 190.676 58.5156C190.848 58.4922 190.992 58.4688 191.109 58.4453L191.121 60.9297C190.832 61.0234 190.52 61.0977 190.184 61.1523C189.848 61.207 189.477 61.2344 189.07 61.2344C188.328 61.2344 187.68 61.1133 187.125 60.8711C186.578 60.6211 186.156 60.2227 185.859 59.6758C185.562 59.1289 185.414 58.4102 185.414 57.5195V45.1914Z" fill="#888888"/>
<path d="M106.688 119H99.1172L99.1641 112.672H106.688C108.25 112.672 109.57 112.297 110.648 111.547C111.742 110.797 112.57 109.68 113.133 108.195C113.711 106.695 114 104.852 114 102.664V101.188C114 99.5469 113.836 98.1094 113.508 96.875C113.195 95.625 112.727 94.5859 112.102 93.7578C111.477 92.9141 110.695 92.2812 109.758 91.8594C108.836 91.4375 107.773 91.2266 106.57 91.2266H98.9766V84.875H106.57C108.883 84.875 111 85.2734 112.922 86.0703C114.859 86.8516 116.531 87.9766 117.938 89.4453C119.359 90.8984 120.453 92.625 121.219 94.625C122 96.6094 122.391 98.8125 122.391 101.234V102.664C122.391 105.07 122 107.273 121.219 109.273C120.453 111.273 119.367 113 117.961 114.453C116.555 115.906 114.891 117.031 112.969 117.828C111.062 118.609 108.969 119 106.688 119ZM103.828 84.875V119H95.6016V84.875H103.828ZM138.586 119.469C136.523 119.469 134.68 119.148 133.055 118.508C131.43 117.852 130.055 116.953 128.93 115.812C127.82 114.672 126.969 113.359 126.375 111.875C125.797 110.391 125.508 108.82 125.508 107.164V106.273C125.508 104.414 125.766 102.695 126.281 101.117C126.797 99.5234 127.562 98.1328 128.578 96.9453C129.594 95.7578 130.867 94.8359 132.398 94.1797C133.93 93.5078 135.711 93.1719 137.742 93.1719C139.539 93.1719 141.148 93.4609 142.57 94.0391C143.992 94.6172 145.195 95.4453 146.18 96.5234C147.18 97.6016 147.938 98.9062 148.453 100.438C148.984 101.969 149.25 103.688 149.25 105.594V108.805H128.531V103.859H141.539V103.25C141.555 102.406 141.406 101.688 141.094 101.094C140.797 100.5 140.359 100.047 139.781 99.7344C139.203 99.4219 138.5 99.2656 137.672 99.2656C136.812 99.2656 136.102 99.4531 135.539 99.8281C134.992 100.203 134.562 100.719 134.25 101.375C133.953 102.016 133.742 102.758 133.617 103.602C133.492 104.445 133.43 105.336 133.43 106.273V107.164C133.43 108.102 133.555 108.953 133.805 109.719C134.07 110.484 134.445 111.141 134.93 111.688C135.43 112.219 136.023 112.633 136.711 112.93C137.414 113.227 138.211 113.375 139.102 113.375C140.18 113.375 141.242 113.172 142.289 112.766C143.336 112.359 144.234 111.688 144.984 110.75L148.57 115.016C148.055 115.75 147.32 116.461 146.367 117.148C145.43 117.836 144.305 118.398 142.992 118.836C141.68 119.258 140.211 119.469 138.586 119.469ZM160.43 98.5156V128.75H152.531V93.6406H159.891L160.43 98.5156ZM175.992 106.016V106.508C175.992 108.352 175.781 110.062 175.359 111.641C174.938 113.219 174.312 114.594 173.484 115.766C172.656 116.938 171.625 117.852 170.391 118.508C169.172 119.148 167.758 119.469 166.148 119.469C164.633 119.469 163.328 119.133 162.234 118.461C161.141 117.789 160.227 116.859 159.492 115.672C158.758 114.484 158.164 113.125 157.711 111.594C157.258 110.062 156.898 108.445 156.633 106.742V106.109C156.898 104.281 157.258 102.586 157.711 101.023C158.164 99.4453 158.758 98.0703 159.492 96.8984C160.227 95.7266 161.133 94.8125 162.211 94.1562C163.305 93.5 164.609 93.1719 166.125 93.1719C167.734 93.1719 169.148 93.4766 170.367 94.0859C171.602 94.6953 172.633 95.5703 173.461 96.7109C174.305 97.8359 174.938 99.1875 175.359 100.766C175.781 102.344 175.992 104.094 175.992 106.016ZM168.094 106.508V106.016C168.094 105.031 168.023 104.133 167.883 103.32C167.742 102.492 167.516 101.773 167.203 101.164C166.906 100.555 166.508 100.086 166.008 99.7578C165.508 99.4297 164.891 99.2656 164.156 99.2656C163.312 99.2656 162.602 99.3984 162.023 99.6641C161.461 99.9141 161.008 100.305 160.664 100.836C160.336 101.352 160.102 102 159.961 102.781C159.836 103.547 159.781 104.445 159.797 105.477V107.398C159.766 108.586 159.883 109.633 160.148 110.539C160.414 111.43 160.875 112.125 161.531 112.625C162.188 113.125 163.078 113.375 164.203 113.375C164.953 113.375 165.578 113.203 166.078 112.859C166.578 112.5 166.977 112.008 167.273 111.383C167.57 110.742 167.781 110.008 167.906 109.18C168.031 108.352 168.094 107.461 168.094 106.508ZM187.852 83V119H179.93V83H187.852ZM191.742 106.578V106.086C191.742 104.227 192.008 102.516 192.539 100.953C193.07 99.375 193.852 98.0078 194.883 96.8516C195.914 95.6953 197.188 94.7969 198.703 94.1562C200.219 93.5 201.969 93.1719 203.953 93.1719C205.953 93.1719 207.711 93.5 209.227 94.1562C210.758 94.7969 212.039 95.6953 213.07 96.8516C214.102 98.0078 214.883 99.375 215.414 100.953C215.945 102.516 216.211 104.227 216.211 106.086V106.578C216.211 108.422 215.945 110.133 215.414 111.711C214.883 113.273 214.102 114.641 213.07 115.812C212.039 116.969 210.766 117.867 209.25 118.508C207.734 119.148 205.984 119.469 204 119.469C202.016 119.469 200.258 119.148 198.727 118.508C197.195 117.867 195.914 116.969 194.883 115.812C193.852 114.641 193.07 113.273 192.539 111.711C192.008 110.133 191.742 108.422 191.742 106.578ZM199.641 106.086V106.578C199.641 107.531 199.711 108.422 199.852 109.25C199.992 110.078 200.227 110.805 200.555 111.43C200.883 112.039 201.328 112.516 201.891 112.859C202.453 113.203 203.156 113.375 204 113.375C204.828 113.375 205.516 113.203 206.062 112.859C206.625 112.516 207.07 112.039 207.398 111.43C207.727 110.805 207.961 110.078 208.102 109.25C208.242 108.422 208.312 107.531 208.312 106.578V106.086C208.312 105.164 208.242 104.297 208.102 103.484C207.961 102.656 207.727 101.93 207.398 101.305C207.07 100.664 206.625 100.164 206.062 99.8047C205.5 99.4453 204.797 99.2656 203.953 99.2656C203.125 99.2656 202.43 99.4453 201.867 99.8047C201.32 100.164 200.883 100.664 200.555 101.305C200.227 101.93 199.992 102.656 199.852 103.484C199.711 104.297 199.641 105.164 199.641 106.086ZM227.133 116.023L233.695 93.6406H242.18L231.984 122.773C231.766 123.414 231.477 124.102 231.117 124.836C230.758 125.586 230.266 126.297 229.641 126.969C229.016 127.641 228.211 128.188 227.227 128.609C226.258 129.031 225.055 129.242 223.617 129.242C222.852 129.242 222.289 129.203 221.93 129.125C221.586 129.062 221.055 128.945 220.336 128.773V123.125C220.539 123.125 220.711 123.125 220.852 123.125C221.008 123.125 221.18 123.125 221.367 123.125C222.211 123.125 222.883 123.039 223.383 122.867C223.898 122.695 224.289 122.445 224.555 122.117C224.836 121.789 225.055 121.391 225.211 120.922L227.133 116.023ZM225.469 93.6406L230.461 111.383L231.328 119.75H226.031L217.008 93.6406H225.469ZM252.211 99.0078V119H244.312V93.6406H251.719L252.211 99.0078ZM251.25 105.453L249.445 105.5C249.445 103.719 249.656 102.078 250.078 100.578C250.5 99.0781 251.125 97.7734 251.953 96.6641C252.781 95.5547 253.797 94.6953 255 94.0859C256.219 93.4766 257.625 93.1719 259.219 93.1719C260.328 93.1719 261.336 93.3438 262.242 93.6875C263.148 94.0156 263.93 94.5391 264.586 95.2578C265.242 95.9609 265.742 96.8828 266.086 98.0234C266.445 99.1484 266.625 100.5 266.625 102.078V119H258.727V103.086C258.727 102.008 258.602 101.195 258.352 100.648C258.117 100.102 257.773 99.7344 257.32 99.5469C256.867 99.3594 256.312 99.2656 255.656 99.2656C254.969 99.2656 254.352 99.4219 253.805 99.7344C253.258 100.047 252.789 100.484 252.398 101.047C252.023 101.594 251.734 102.242 251.531 102.992C251.344 103.742 251.25 104.562 251.25 105.453ZM265.734 105.453L263.531 105.5C263.531 103.719 263.727 102.078 264.117 100.578C264.523 99.0781 265.125 97.7734 265.922 96.6641C266.734 95.5547 267.742 94.6953 268.945 94.0859C270.148 93.4766 271.547 93.1719 273.141 93.1719C274.297 93.1719 275.359 93.3438 276.328 93.6875C277.297 94.0312 278.133 94.5859 278.836 95.3516C279.539 96.1172 280.086 97.1328 280.477 98.3984C280.867 99.6484 281.062 101.195 281.062 103.039V119H273.141V103.039C273.141 101.992 273.016 101.203 272.766 100.672C272.531 100.125 272.188 99.7578 271.734 99.5703C271.281 99.3672 270.742 99.2656 270.117 99.2656C269.367 99.2656 268.719 99.4219 268.172 99.7344C267.625 100.047 267.164 100.484 266.789 101.047C266.43 101.594 266.164 102.242 265.992 102.992C265.82 103.742 265.734 104.562 265.734 105.453ZM297.867 119.469C295.805 119.469 293.961 119.148 292.336 118.508C290.711 117.852 289.336 116.953 288.211 115.812C287.102 114.672 286.25 113.359 285.656 111.875C285.078 110.391 284.789 108.82 284.789 107.164V106.273C284.789 104.414 285.047 102.695 285.562 101.117C286.078 99.5234 286.844 98.1328 287.859 96.9453C288.875 95.7578 290.148 94.8359 291.68 94.1797C293.211 93.5078 294.992 93.1719 297.023 93.1719C298.82 93.1719 300.43 93.4609 301.852 94.0391C303.273 94.6172 304.477 95.4453 305.461 96.5234C306.461 97.6016 307.219 98.9062 307.734 100.438C308.266 101.969 308.531 103.688 308.531 105.594V108.805H287.812V103.859H300.82V103.25C300.836 102.406 300.688 101.688 300.375 101.094C300.078 100.5 299.641 100.047 299.062 99.7344C298.484 99.4219 297.781 99.2656 296.953 99.2656C296.094 99.2656 295.383 99.4531 294.82 99.8281C294.273 100.203 293.844 100.719 293.531 101.375C293.234 102.016 293.023 102.758 292.898 103.602C292.773 104.445 292.711 105.336 292.711 106.273V107.164C292.711 108.102 292.836 108.953 293.086 109.719C293.352 110.484 293.727 111.141 294.211 111.688C294.711 112.219 295.305 112.633 295.992 112.93C296.695 113.227 297.492 113.375 298.383 113.375C299.461 113.375 300.523 113.172 301.57 112.766C302.617 112.359 303.516 111.688 304.266 110.75L307.852 115.016C307.336 115.75 306.602 116.461 305.648 117.148C304.711 117.836 303.586 118.398 302.273 118.836C300.961 119.258 299.492 119.469 297.867 119.469ZM319.5 99.0547V119H311.602V93.6406H319.008L319.5 99.0547ZM318.562 105.453L316.711 105.5C316.711 103.562 316.945 101.836 317.414 100.32C317.883 98.7891 318.547 97.4922 319.406 96.4297C320.266 95.3672 321.289 94.5625 322.477 94.0156C323.68 93.4531 325.016 93.1719 326.484 93.1719C327.656 93.1719 328.727 93.3438 329.695 93.6875C330.68 94.0312 331.523 94.5859 332.227 95.3516C332.945 96.1172 333.492 97.1328 333.867 98.3984C334.258 99.6484 334.453 101.195 334.453 103.039V119H326.508V103.016C326.508 102 326.367 101.227 326.086 100.695C325.805 100.148 325.398 99.7734 324.867 99.5703C324.336 99.3672 323.688 99.2656 322.922 99.2656C322.109 99.2656 321.422 99.4219 320.859 99.7344C320.297 100.047 319.844 100.484 319.5 101.047C319.172 101.594 318.93 102.242 318.773 102.992C318.633 103.742 318.562 104.562 318.562 105.453ZM352.195 93.6406V99.125H336.914V93.6406H352.195ZM340.125 87.3359H348.023V110.727C348.023 111.398 348.102 111.922 348.258 112.297C348.414 112.656 348.68 112.914 349.055 113.07C349.445 113.211 349.961 113.281 350.602 113.281C351.055 113.281 351.43 113.273 351.727 113.258C352.023 113.227 352.305 113.188 352.57 113.141V118.789C351.898 119.008 351.195 119.172 350.461 119.281C349.727 119.406 348.945 119.469 348.117 119.469C346.43 119.469 344.984 119.203 343.781 118.672C342.594 118.141 341.688 117.305 341.062 116.164C340.438 115.023 340.125 113.539 340.125 111.711V87.3359Z" fill="black"/>
<path d="M1134 0H1348C1356.28 0 1363 6.71573 1363 15V148C1363 156.284 1356.28 163 1348 163H1134V0Z" fill="#FF8B1F"/>
<path d="M1212.5 117.5L1212.5 45.5L1284.5 45.5L1284.5 117.5L1212.5 117.5Z" fill="#100909" fill-opacity="0.01"/>
<path d="M1221.5 81.5125L1221.5 108.5L1275.5 108.5L1275.5 81.5" fill="#100909" fill-opacity="0.01"/>
<path d="M1221.5 81.5125L1221.5 108.5L1275.5 108.5L1275.5 81.5" stroke="#0B0808" stroke-width="7.24" stroke-linecap="round" stroke-linejoin="round"/>
<path d="M1262 68L1248.5 54.5L1235 68" fill="#100909" fill-opacity="0.01"/>
<path d="M1262 68L1248.5 54.5L1235 68" stroke="#0B0808" stroke-width="7.24" stroke-linecap="round" stroke-linejoin="round"/>
<path d="M1248.49 93.4999L1248.49 54.5Z" fill="#100909" fill-opacity="0.01"/>
<path d="M1248.49 93.4999L1248.49 54.5" stroke="#0B0808" stroke-width="7.24" stroke-linecap="round" stroke-linejoin="round"/>
</svg>
