<svg width="1363" height="163" viewBox="0 0 1363 163" fill="none" xmlns="http://www.w3.org/2000/svg">
<path d="M0 15C0 6.71573 6.71573 0 15 0H37V163H15C6.71573 163 0 156.284 0 148V15Z" fill="#424242"/>
<rect width="1097" height="163" transform="translate(37)" fill="#F0F0F0"/>
<path d="M98.0391 43.9375V61H94.5234V43.9375H98.0391ZM104.836 51.2266V53.9688H97.0781V51.2266H104.836ZM105.656 43.9375V46.6914H97.0781V43.9375H105.656ZM111.047 43V61H107.66V43H111.047ZM113.297 54.7891V54.543C113.297 53.6133 113.43 52.7578 113.695 51.9766C113.961 51.1875 114.348 50.5039 114.855 49.9258C115.363 49.3477 115.988 48.8984 116.73 48.5781C117.473 48.25 118.324 48.0859 119.285 48.0859C120.246 48.0859 121.102 48.25 121.852 48.5781C122.602 48.8984 123.23 49.3477 123.738 49.9258C124.254 50.5039 124.645 51.1875 124.91 51.9766C125.176 52.7578 125.309 53.6133 125.309 54.543V54.7891C125.309 55.7109 125.176 56.5664 124.91 57.3555C124.645 58.1367 124.254 58.8203 123.738 59.4062C123.23 59.9844 122.605 60.4336 121.863 60.7539C121.121 61.0742 120.27 61.2344 119.309 61.2344C118.348 61.2344 117.492 61.0742 116.742 60.7539C116 60.4336 115.371 59.9844 114.855 59.4062C114.348 58.8203 113.961 58.1367 113.695 57.3555C113.43 56.5664 113.297 55.7109 113.297 54.7891ZM116.672 54.543V54.7891C116.672 55.3203 116.719 55.8164 116.812 56.2773C116.906 56.7383 117.055 57.1445 117.258 57.4961C117.469 57.8398 117.742 58.1094 118.078 58.3047C118.414 58.5 118.824 58.5977 119.309 58.5977C119.777 58.5977 120.18 58.5 120.516 58.3047C120.852 58.1094 121.121 57.8398 121.324 57.4961C121.527 57.1445 121.676 56.7383 121.77 56.2773C121.871 55.8164 121.922 55.3203 121.922 54.7891V54.543C121.922 54.0273 121.871 53.543 121.77 53.0898C121.676 52.6289 121.523 52.2227 121.312 51.8711C121.109 51.5117 120.84 51.2305 120.504 51.0273C120.168 50.8242 119.762 50.7227 119.285 50.7227C118.809 50.7227 118.402 50.8242 118.066 51.0273C117.738 51.2305 117.469 51.5117 117.258 51.8711C117.055 52.2227 116.906 52.6289 116.812 53.0898C116.719 53.543 116.672 54.0273 116.672 54.543ZM131.004 57.7188L133.641 48.3203H135.785L135.094 52.0117L132.457 61H130.664L131.004 57.7188ZM129.668 48.3203L131.555 57.707L131.73 61H129.621L126.41 48.3203H129.668ZM138.199 57.5547L140.039 48.3203H143.309L140.098 61H138L138.199 57.5547ZM136.078 48.3203L138.703 57.6484L139.066 61H137.262L134.625 52.0234L133.957 48.3203H136.078ZM151.863 54.918H147.516V52.1758H151.863C152.535 52.1758 153.082 52.0664 153.504 51.8477C153.926 51.6211 154.234 51.3086 154.43 50.9102C154.625 50.5117 154.723 50.0625 154.723 49.5625C154.723 49.0547 154.625 48.582 154.43 48.1445C154.234 47.707 153.926 47.3555 153.504 47.0898C153.082 46.8242 152.535 46.6914 151.863 46.6914H148.734V61H145.219V43.9375H151.863C153.199 43.9375 154.344 44.1797 155.297 44.6641C156.258 45.1406 156.992 45.8008 157.5 46.6445C158.008 47.4883 158.262 48.4531 158.262 49.5391C158.262 50.6406 158.008 51.5938 157.5 52.3984C156.992 53.2031 156.258 53.8242 155.297 54.2617C154.344 54.6992 153.199 54.918 151.863 54.918ZM164.039 48.3203V61H160.652V48.3203H164.039ZM160.441 45.0156C160.441 44.5234 160.613 44.1172 160.957 43.7969C161.301 43.4766 161.762 43.3164 162.34 43.3164C162.91 43.3164 163.367 43.4766 163.711 43.7969C164.062 44.1172 164.238 44.5234 164.238 45.0156C164.238 45.5078 164.062 45.9141 163.711 46.2344C163.367 46.5547 162.91 46.7148 162.34 46.7148C161.762 46.7148 161.301 46.5547 160.957 46.2344C160.613 45.9141 160.441 45.5078 160.441 45.0156ZM170.391 43V61H167.004V43H170.391ZM172.641 54.7891V54.543C172.641 53.6133 172.773 52.7578 173.039 51.9766C173.305 51.1875 173.691 50.5039 174.199 49.9258C174.707 49.3477 175.332 48.8984 176.074 48.5781C176.816 48.25 177.668 48.0859 178.629 48.0859C179.59 48.0859 180.445 48.25 181.195 48.5781C181.945 48.8984 182.574 49.3477 183.082 49.9258C183.598 50.5039 183.988 51.1875 184.254 51.9766C184.52 52.7578 184.652 53.6133 184.652 54.543V54.7891C184.652 55.7109 184.52 56.5664 184.254 57.3555C183.988 58.1367 183.598 58.8203 183.082 59.4062C182.574 59.9844 181.949 60.4336 181.207 60.7539C180.465 61.0742 179.613 61.2344 178.652 61.2344C177.691 61.2344 176.836 61.0742 176.086 60.7539C175.344 60.4336 174.715 59.9844 174.199 59.4062C173.691 58.8203 173.305 58.1367 173.039 57.3555C172.773 56.5664 172.641 55.7109 172.641 54.7891ZM176.016 54.543V54.7891C176.016 55.3203 176.062 55.8164 176.156 56.2773C176.25 56.7383 176.398 57.1445 176.602 57.4961C176.812 57.8398 177.086 58.1094 177.422 58.3047C177.758 58.5 178.168 58.5977 178.652 58.5977C179.121 58.5977 179.523 58.5 179.859 58.3047C180.195 58.1094 180.465 57.8398 180.668 57.4961C180.871 57.1445 181.02 56.7383 181.113 56.2773C181.215 55.8164 181.266 55.3203 181.266 54.7891V54.543C181.266 54.0273 181.215 53.543 181.113 53.0898C181.02 52.6289 180.867 52.2227 180.656 51.8711C180.453 51.5117 180.184 51.2305 179.848 51.0273C179.512 50.8242 179.105 50.7227 178.629 50.7227C178.152 50.7227 177.746 50.8242 177.41 51.0273C177.082 51.2305 176.812 51.5117 176.602 51.8711C176.398 52.2227 176.25 52.6289 176.156 53.0898C176.062 53.543 176.016 54.0273 176.016 54.543ZM192.938 48.3203V50.7109H185.555V48.3203H192.938ZM187.383 45.1914H190.758V57.1797C190.758 57.5469 190.805 57.8281 190.898 58.0234C191 58.2188 191.148 58.3555 191.344 58.4336C191.539 58.5039 191.785 58.5391 192.082 58.5391C192.293 58.5391 192.48 58.5312 192.645 58.5156C192.816 58.4922 192.961 58.4688 193.078 58.4453L193.09 60.9297C192.801 61.0234 192.488 61.0977 192.152 61.1523C191.816 61.207 191.445 61.2344 191.039 61.2344C190.297 61.2344 189.648 61.1133 189.094 60.8711C188.547 60.6211 188.125 60.2227 187.828 59.6758C187.531 59.1289 187.383 58.4102 187.383 57.5195V45.1914Z" fill="#888888"/>
<path d="M106.688 119H99.1172L99.1641 112.672H106.688C108.25 112.672 109.57 112.297 110.648 111.547C111.742 110.797 112.57 109.68 113.133 108.195C113.711 106.695 114 104.852 114 102.664V101.188C114 99.5469 113.836 98.1094 113.508 96.875C113.195 95.625 112.727 94.5859 112.102 93.7578C111.477 92.9141 110.695 92.2812 109.758 91.8594C108.836 91.4375 107.773 91.2266 106.57 91.2266H98.9766V84.875H106.57C108.883 84.875 111 85.2734 112.922 86.0703C114.859 86.8516 116.531 87.9766 117.938 89.4453C119.359 90.8984 120.453 92.625 121.219 94.625C122 96.6094 122.391 98.8125 122.391 101.234V102.664C122.391 105.07 122 107.273 121.219 109.273C120.453 111.273 119.367 113 117.961 114.453C116.555 115.906 114.891 117.031 112.969 117.828C111.062 118.609 108.969 119 106.688 119ZM103.828 84.875V119H95.6016V84.875H103.828ZM138.586 119.469C136.523 119.469 134.68 119.148 133.055 118.508C131.43 117.852 130.055 116.953 128.93 115.812C127.82 114.672 126.969 113.359 126.375 111.875C125.797 110.391 125.508 108.82 125.508 107.164V106.273C125.508 104.414 125.766 102.695 126.281 101.117C126.797 99.5234 127.562 98.1328 128.578 96.9453C129.594 95.7578 130.867 94.8359 132.398 94.1797C133.93 93.5078 135.711 93.1719 137.742 93.1719C139.539 93.1719 141.148 93.4609 142.57 94.0391C143.992 94.6172 145.195 95.4453 146.18 96.5234C147.18 97.6016 147.938 98.9062 148.453 100.438C148.984 101.969 149.25 103.688 149.25 105.594V108.805H128.531V103.859H141.539V103.25C141.555 102.406 141.406 101.688 141.094 101.094C140.797 100.5 140.359 100.047 139.781 99.7344C139.203 99.4219 138.5 99.2656 137.672 99.2656C136.812 99.2656 136.102 99.4531 135.539 99.8281C134.992 100.203 134.562 100.719 134.25 101.375C133.953 102.016 133.742 102.758 133.617 103.602C133.492 104.445 133.43 105.336 133.43 106.273V107.164C133.43 108.102 133.555 108.953 133.805 109.719C134.07 110.484 134.445 111.141 134.93 111.688C135.43 112.219 136.023 112.633 136.711 112.93C137.414 113.227 138.211 113.375 139.102 113.375C140.18 113.375 141.242 113.172 142.289 112.766C143.336 112.359 144.234 111.688 144.984 110.75L148.57 115.016C148.055 115.75 147.32 116.461 146.367 117.148C145.43 117.836 144.305 118.398 142.992 118.836C141.68 119.258 140.211 119.469 138.586 119.469ZM160.43 99.0078V119H152.531V93.6406H159.938L160.43 99.0078ZM159.469 105.453L157.664 105.5C157.664 103.719 157.875 102.078 158.297 100.578C158.719 99.0781 159.344 97.7734 160.172 96.6641C161 95.5547 162.016 94.6953 163.219 94.0859C164.438 93.4766 165.844 93.1719 167.438 93.1719C168.547 93.1719 169.555 93.3438 170.461 93.6875C171.367 94.0156 172.148 94.5391 172.805 95.2578C173.461 95.9609 173.961 96.8828 174.305 98.0234C174.664 99.1484 174.844 100.5 174.844 102.078V119H166.945V103.086C166.945 102.008 166.82 101.195 166.57 100.648C166.336 100.102 165.992 99.7344 165.539 99.5469C165.086 99.3594 164.531 99.2656 163.875 99.2656C163.188 99.2656 162.57 99.4219 162.023 99.7344C161.477 100.047 161.008 100.484 160.617 101.047C160.242 101.594 159.953 102.242 159.75 102.992C159.562 103.742 159.469 104.562 159.469 105.453ZM173.953 105.453L171.75 105.5C171.75 103.719 171.945 102.078 172.336 100.578C172.742 99.0781 173.344 97.7734 174.141 96.6641C174.953 95.5547 175.961 94.6953 177.164 94.0859C178.367 93.4766 179.766 93.1719 181.359 93.1719C182.516 93.1719 183.578 93.3438 184.547 93.6875C185.516 94.0312 186.352 94.5859 187.055 95.3516C187.758 96.1172 188.305 97.1328 188.695 98.3984C189.086 99.6484 189.281 101.195 189.281 103.039V119H181.359V103.039C181.359 101.992 181.234 101.203 180.984 100.672C180.75 100.125 180.406 99.7578 179.953 99.5703C179.5 99.3672 178.961 99.2656 178.336 99.2656C177.586 99.2656 176.938 99.4219 176.391 99.7344C175.844 100.047 175.383 100.484 175.008 101.047C174.648 101.594 174.383 102.242 174.211 102.992C174.039 103.742 173.953 104.562 173.953 105.453ZM192.82 106.578V106.086C192.82 104.227 193.086 102.516 193.617 100.953C194.148 99.375 194.93 98.0078 195.961 96.8516C196.992 95.6953 198.266 94.7969 199.781 94.1562C201.297 93.5 203.047 93.1719 205.031 93.1719C207.031 93.1719 208.789 93.5 210.305 94.1562C211.836 94.7969 213.117 95.6953 214.148 96.8516C215.18 98.0078 215.961 99.375 216.492 100.953C217.023 102.516 217.289 104.227 217.289 106.086V106.578C217.289 108.422 217.023 110.133 216.492 111.711C215.961 113.273 215.18 114.641 214.148 115.812C213.117 116.969 211.844 117.867 210.328 118.508C208.812 119.148 207.062 119.469 205.078 119.469C203.094 119.469 201.336 119.148 199.805 118.508C198.273 117.867 196.992 116.969 195.961 115.812C194.93 114.641 194.148 113.273 193.617 111.711C193.086 110.133 192.82 108.422 192.82 106.578ZM200.719 106.086V106.578C200.719 107.531 200.789 108.422 200.93 109.25C201.07 110.078 201.305 110.805 201.633 111.43C201.961 112.039 202.406 112.516 202.969 112.859C203.531 113.203 204.234 113.375 205.078 113.375C205.906 113.375 206.594 113.203 207.141 112.859C207.703 112.516 208.148 112.039 208.477 111.43C208.805 110.805 209.039 110.078 209.18 109.25C209.32 108.422 209.391 107.531 209.391 106.578V106.086C209.391 105.164 209.32 104.297 209.18 103.484C209.039 102.656 208.805 101.93 208.477 101.305C208.148 100.664 207.703 100.164 207.141 99.8047C206.578 99.4453 205.875 99.2656 205.031 99.2656C204.203 99.2656 203.508 99.4453 202.945 99.8047C202.398 100.164 201.961 100.664 201.633 101.305C201.305 101.93 201.07 102.656 200.93 103.484C200.789 104.297 200.719 105.164 200.719 106.086Z" fill="black"/>
<path d="M1134 0H1348C1356.28 0 1363 6.71573 1363 15V148C1363 156.284 1356.28 163 1348 163H1134V0Z" fill="#FF8B1F"/>
<path d="M1280.07 47.5H1216.93L1214.5 49.9286V113.071L1216.93 115.5H1280.07L1282.5 113.071V49.9286L1280.07 47.5ZM1277.64 110.643H1233.93V100.929H1245.1C1246.56 103.843 1249.96 105.786 1253.36 105.786C1258.7 105.786 1263.07 101.414 1263.07 96.0714C1263.07 90.7286 1258.7 86.3571 1253.36 86.3571C1248.01 86.3571 1243.64 90.7286 1243.64 96.0714H1229.07V110.643H1219.36V52.3571H1229.07V63.5286C1226.16 64.9857 1224.21 68.3857 1224.21 71.7857C1224.21 77.1286 1228.59 81.5 1233.93 81.5C1239.27 81.5 1243.64 77.1286 1243.64 71.7857H1253.36C1253.36 77.1286 1257.73 81.5 1263.07 81.5C1268.41 81.5 1272.79 77.1286 1272.79 71.7857C1272.79 66.4429 1268.41 62.0714 1263.07 62.0714C1259.67 62.0714 1256.27 64.0143 1254.81 66.9286H1242.19C1240.73 64.0143 1237.33 62.0714 1233.93 62.0714V52.3571H1277.64V110.643ZM1248.5 96.0714C1248.5 93.1571 1250.44 91.2143 1253.36 91.2143C1256.27 91.2143 1258.21 93.1571 1258.21 96.0714C1258.21 98.9857 1256.27 100.929 1253.36 100.929C1250.44 100.929 1248.5 98.9857 1248.5 96.0714ZM1233.93 66.9286C1236.84 66.9286 1238.79 68.8714 1238.79 71.7857C1238.79 74.7 1236.84 76.6429 1233.93 76.6429C1231.01 76.6429 1229.07 74.7 1229.07 71.7857C1229.07 68.8714 1231.01 66.9286 1233.93 66.9286ZM1263.07 66.9286C1265.99 66.9286 1267.93 68.8714 1267.93 71.7857C1267.93 74.7 1265.99 76.6429 1263.07 76.6429C1260.16 76.6429 1258.21 74.7 1258.21 71.7857C1258.21 68.8714 1260.16 66.9286 1263.07 66.9286Z" fill="black"/>
</svg>
